<?xml version="1.0" encoding="iso-8859-1"?>
<!-- Generator: Adobe Illustrator 17.1.0, SVG Export Plug-In . SVG Version: 6.00 Build 0)  -->
<!DOCTYPE svg PUBLIC "-//W3C//DTD SVG 1.1//EN" "http://www.w3.org/Graphics/SVG/1.1/DTD/svg11.dtd">
<svg version="1.1" id="Capa_1" xmlns="http://www.w3.org/2000/svg" xmlns:xlink="http://www.w3.org/1999/xlink" x="0px" y="0px"
	 viewBox="0 0 338.157 338.157" style="enable-background:new 0 0 338.157 338.157;" xml:space="preserve">
<path d="M169.081,0h-0.004c-50.353,0-91.317,40.965-91.317,91.319v122.666c0,0.018,0,0.034,0,0.052v32.802
	c0,50.354,40.965,91.319,91.321,91.319c50.353,0,91.317-40.965,91.317-91.319v-62.75c0-0.028,0-0.056,0-0.084V91.319
	C260.398,40.965,219.433,0,169.081,0z M242.398,176.527l-30.908,5.631c-4.89,0.891-8.132,5.577-7.241,10.467
	c0.891,4.89,5.575,8.129,10.467,7.241l27.682-5.043v22.139l-68.321,12.444c-4.89,0.891-8.132,5.577-7.242,10.467
	c0.891,4.89,5.577,8.132,10.467,7.242l65.096-11.857v11.58c0,40.428-32.89,73.319-73.321,73.319
	c-35.339,0-64.92-25.135-71.806-58.466L128.517,256c4.89-0.891,8.132-5.577,7.242-10.467c-0.891-4.89-5.583-8.135-10.467-7.242
	l-29.532,5.379v-22.14l73.671-13.417c4.89-0.891,8.132-5.577,7.242-10.467c-0.891-4.89-5.57-8.131-10.467-7.242l-70.445,12.83
	V91.319c0-40.428,32.89-73.319,73.317-73.319h0.004c40.427,0,73.317,32.891,73.317,73.319V176.527z M169.079,39.716
	c-28.632,0-51.926,23.295-51.926,51.928c0,14.575,6.184,28.566,16.965,38.387c0.475,0.432,0.982,0.804,1.515,1.116
	c2.449,16.26,16.515,28.767,33.446,28.767c16.933,0,31-12.507,33.448-28.767c0.532-0.312,1.039-0.684,1.513-1.115
	c10.784-9.823,16.968-23.814,16.968-38.388C221.008,63.011,197.712,39.716,169.079,39.716z M169.079,141.913
	c-8.725,0-15.824-7.099-15.824-15.825s7.099-15.825,15.824-15.825c8.726,0,15.826,7.099,15.826,15.825
	S177.805,141.913,169.079,141.913z M198.241,108.964c-5.886-9.986-16.755-16.701-29.162-16.701
	c-12.407,0-23.274,6.714-29.161,16.701c-3.084-5.196-4.765-11.179-4.765-17.32c0-2.895,0.364-5.706,1.05-8.39
	c1.479,2.946,4.527,4.969,8.049,4.969h0.003c4.971,0,8.998-4.029,8.998-9s-4.031-9-9.001-9c-0.537,0-1.063,0.047-1.574,0.137
	c6.224-7.706,15.748-12.644,26.401-12.644c10.656,0,20.18,4.938,26.405,12.645c-0.514-0.091-1.042-0.139-1.582-0.139
	c-4.971,0-9,4.029-9,9s4.029,9,9,9h0.003c3.524,0,6.574-2.025,8.051-4.975c0.686,2.686,1.051,5.5,1.051,8.396
	C203.008,97.784,201.326,103.767,198.241,108.964z"/>
<g>
</g>
<g>
</g>
<g>
</g>
<g>
</g>
<g>
</g>
<g>
</g>
<g>
</g>
<g>
</g>
<g>
</g>
<g>
</g>
<g>
</g>
<g>
</g>
<g>
</g>
<g>
</g>
<g>
</g>
</svg>
